<?xml version="1.0" encoding="UTF-8" standalone="no"?>
<!-- Created with Inkscape (http://www.inkscape.org/) -->

<svg
   xmlns:dc="http://purl.org/dc/elements/1.1/"
   xmlns:cc="http://creativecommons.org/ns#"
   xmlns:rdf="http://www.w3.org/1999/02/22-rdf-syntax-ns#"
   xmlns:svg="http://www.w3.org/2000/svg"
   xmlns="http://www.w3.org/2000/svg"
   xmlns:xlink="http://www.w3.org/1999/xlink"
   xmlns:sodipodi="http://sodipodi.sourceforge.net/DTD/sodipodi-0.dtd"
   xmlns:inkscape="http://www.inkscape.org/namespaces/inkscape"
   width="685.3714"
   height="136.38747"
   viewBox="0 0 181.33785 36.085852"
   version="1.1"
   id="svg8"
   inkscape:version="0.92.5 (2060ec1f9f, 2020-04-08)"
   sodipodi:docname="AIVISLogo.svg">
  <defs
     id="defs2">
    <linearGradient
       inkscape:collect="always"
       id="linearGradient827">
      <stop
         style="stop-color:#ff00f2;stop-opacity:1"
         offset="0"
         id="stop823" />
      <stop
         style="stop-color:#ff7900;stop-opacity:1"
         offset="1"
         id="stop825" />
    </linearGradient>
    <linearGradient
       inkscape:collect="always"
       xlink:href="#linearGradient827"
       id="linearGradient829"
       x1="95.084503"
       y1="489.0242"
       x2="246.73827"
       y2="428.04172"
       gradientUnits="userSpaceOnUse" />
    <linearGradient
       inkscape:collect="always"
       xlink:href="#linearGradient827"
       id="linearGradient842"
       gradientUnits="userSpaceOnUse"
       x1="95.084503"
       y1="489.0242"
       x2="246.73827"
       y2="428.04172" />
    <linearGradient
       inkscape:collect="always"
       xlink:href="#linearGradient827"
       id="linearGradient844"
       gradientUnits="userSpaceOnUse"
       x1="95.084503"
       y1="489.0242"
       x2="246.73827"
       y2="428.04172" />
    <linearGradient
       inkscape:collect="always"
       xlink:href="#linearGradient827"
       id="linearGradient846"
       gradientUnits="userSpaceOnUse"
       x1="95.084503"
       y1="489.0242"
       x2="246.73827"
       y2="428.04172" />
    <linearGradient
       inkscape:collect="always"
       xlink:href="#linearGradient827"
       id="linearGradient848"
       gradientUnits="userSpaceOnUse"
       x1="95.084503"
       y1="489.0242"
       x2="246.73827"
       y2="428.04172" />
    <linearGradient
       inkscape:collect="always"
       xlink:href="#linearGradient827"
       id="linearGradient850"
       gradientUnits="userSpaceOnUse"
       x1="95.084503"
       y1="489.0242"
       x2="246.73827"
       y2="428.04172" />
  </defs>
  <sodipodi:namedview
     id="base"
     pagecolor="#ffffff"
     bordercolor="#666666"
     borderopacity="1.0"
     inkscape:pageopacity="0.0"
     inkscape:pageshadow="2"
     inkscape:zoom="1.2462598"
     inkscape:cx="361.53852"
     inkscape:cy="1.4847344"
     inkscape:document-units="mm"
     inkscape:current-layer="layer1"
     showgrid="false"
     units="px"
     fit-margin-top="0"
     fit-margin-left="0"
     fit-margin-right="0"
     fit-margin-bottom="0"
     inkscape:window-width="1720"
     inkscape:window-height="1385"
     inkscape:window-x="1720"
     inkscape:window-y="27"
     inkscape:window-maximized="1" />
  <metadata
     id="metadata5">
    <rdf:RDF>
      <cc:Work
         rdf:about="">
        <dc:format>image/svg+xml</dc:format>
        <dc:type
           rdf:resource="http://purl.org/dc/dcmitype/StillImage" />
        <dc:title></dc:title>
      </cc:Work>
    </rdf:RDF>
  </metadata>
  <g
     inkscape:label="Layer 1"
     inkscape:groupmode="layer"
     id="layer1"
     transform="translate(-14.331077,-130.45707)">
    <g
       aria-label="A I V I S"
       transform="matrix(1.1927669,0,0,1.1927669,-98.383066,-397.729)"
       style="font-style:normal;font-weight:normal;font-size:40px;line-height:1.25;font-family:sans-serif;letter-spacing:0px;word-spacing:0px;fill:url(#linearGradient829);fill-opacity:1;stroke:none"
       id="flowRoot815">
      <path
         d="M 107.85742,447.23828 102.50586,461.75 h 10.72266 z m -2.22656,-3.88672 h 4.47266 l 11.11328,29.16016 h -4.10157 l -2.65625,-7.48047 h -13.14453 l -2.656247,7.48047 h -4.160156 z"
         style="fill:url(#linearGradient842);fill-opacity:1"
         id="path831"
         inkscape:connector-curvature="0" />
      <path
         d="m 138.18945,443.35156 h 3.94532 v 29.16016 h -3.94532 z"
         style="fill:url(#linearGradient844);fill-opacity:1"
         id="path833"
         inkscape:connector-curvature="0" />
      <path
         d="m 170.2207,472.51172 -11.13281,-29.16016 h 4.12109 l 9.23829,24.55078 9.25781,-24.55078 h 4.10156 l -11.11328,29.16016 z"
         style="fill:url(#linearGradient846);fill-opacity:1"
         id="path835"
         inkscape:connector-curvature="0" />
      <path
         d="m 202.7793,443.35156 h 3.94531 v 29.16016 h -3.94531 z"
         style="fill:url(#linearGradient848);fill-opacity:1"
         id="path837"
         inkscape:connector-curvature="0" />
      <path
         d="m 244.77148,444.30859 v 3.84766 q -2.24609,-1.07422 -4.23828,-1.60156 -1.99218,-0.52735 -3.84765,-0.52735 -3.22266,0 -4.98047,1.25 -1.73828,1.25 -1.73828,3.55469 0,1.93359 1.15234,2.92969 1.17188,0.97656 4.41406,1.58203 l 2.38282,0.48828 q 4.41406,0.83984 6.5039,2.96875 2.10938,2.10938 2.10938,5.66406 0,4.23828 -2.85157,6.42578 -2.83203,2.1875 -8.32031,2.1875 -2.07031,0 -4.41406,-0.46875 -2.32422,-0.46875 -4.82422,-1.38671 v -4.0625 q 2.40234,1.34765 4.70703,2.03125 2.30469,0.68359 4.53125,0.68359 3.37891,0 5.21485,-1.32813 1.83593,-1.32812 1.83593,-3.78906 0,-2.14844 -1.32812,-3.35937 -1.3086,-1.21094 -4.31641,-1.81641 l -2.40234,-0.46875 q -4.41406,-0.87891 -6.38672,-2.75391 -1.97266,-1.875 -1.97266,-5.21484 0,-3.86719 2.71485,-6.09375 2.73437,-2.22656 7.51953,-2.22656 2.05078,0 4.17969,0.37109 2.1289,0.3711 4.35546,1.11328 z"
         style="fill:url(#linearGradient850);fill-opacity:1"
         id="path839"
         inkscape:connector-curvature="0" />
    </g>
  </g>
</svg>
